<svg width="200" height="200" viewBox="0 0 200 200" fill="none" xmlns="http://www.w3.org/2000/svg">
<g clip-path="url(#clip0_41_355)">
<path d="M1.80719 52.0347L19.8609 61.8787L112.881 11.4721L94.6337 1.62811L1.80719 52.0347Z" fill="white"/>
<path fill-rule="evenodd" clip-rule="evenodd" d="M93.801 0.278909C94.0541 0.141855 94.3413 0.0697021 94.6337 0.0697021C94.926 0.0697021 95.2132 0.141855 95.4664 0.278909L113.713 10.1229C113.968 10.2595 114.18 10.4568 114.327 10.6948C114.474 10.9329 114.552 11.2031 114.552 11.4783C114.552 11.7535 114.474 12.0237 114.327 12.2617C114.18 12.4998 113.968 12.6971 113.713 12.8337L20.7002 63.2341C20.4463 63.3723 20.1578 63.4451 19.8642 63.4451C19.5705 63.4451 19.2821 63.3723 19.0281 63.2341L0.974445 53.3776C0.721282 53.2406 0.511056 53.0434 0.364894 52.8061C0.218732 52.5687 0.141785 52.2994 0.141785 52.0253C0.141785 51.7512 0.218732 51.482 0.364894 51.2446C0.511056 51.0072 0.721282 50.8101 0.974445 50.673L93.801 0.272663V0.278909ZM94.6337 3.43947L5.13811 52.0347L19.8742 60.0673L109.543 11.4783L94.6337 3.43947Z" fill="black"/>
<path d="M1.80719 52.0347V152.829L20.0607 162.673L19.8609 61.8787L1.80719 52.0347Z" fill="white"/>
<path fill-rule="evenodd" clip-rule="evenodd" d="M0.98112 50.6731C1.2343 50.536 1.5215 50.4639 1.81385 50.4639C2.1062 50.4639 2.3934 50.536 2.64659 50.6731L20.7003 60.5233C20.9529 60.6601 21.1629 60.8567 21.309 61.0935C21.4552 61.3303 21.5324 61.5989 21.533 61.8725L21.7262 162.673C21.7286 162.949 21.6531 163.22 21.5073 163.46C21.3615 163.7 21.1506 163.899 20.8961 164.037C20.6416 164.175 20.3526 164.248 20.0584 164.248C19.7642 164.247 19.4754 164.174 19.2213 164.035L0.98112 154.185C0.726213 154.048 0.514321 153.851 0.366913 153.613C0.219505 153.375 0.141818 153.104 0.141724 152.829L0.141724 52.0347C0.141818 51.7595 0.219505 51.4892 0.366913 51.2511C0.514321 51.0131 0.726213 50.8096 0.98112 50.6731ZM3.47932 54.7518V151.924L18.3819 159.969L18.1954 62.7782L3.47932 54.7518Z" fill="black"/>
<path d="M19.8608 61.8787L112.881 11.4721V112.279L20.054 162.679L19.8675 61.8725L19.8608 61.8787Z" fill="black"/>
<path fill-rule="evenodd" clip-rule="evenodd" d="M113.713 10.1229C113.967 10.2602 114.178 10.4578 114.324 10.6958C114.47 10.9338 114.547 11.2037 114.546 11.4783V112.279C114.545 112.553 114.468 112.821 114.322 113.058C114.176 113.295 113.966 113.491 113.713 113.628L20.8934 164.035C20.6398 164.174 20.3516 164.247 20.058 164.248C19.7644 164.248 19.4758 164.176 19.2215 164.039C18.9672 163.901 18.7562 163.703 18.61 163.464C18.4637 163.225 18.3873 162.955 18.3886 162.679L18.1954 61.8787C18.1948 61.604 18.2715 61.3341 18.4177 61.0962C18.5639 60.8582 18.7744 60.6606 19.0281 60.5233L112.041 10.1229C112.294 9.98585 112.582 9.9137 112.874 9.9137C113.166 9.9137 113.46 9.98585 113.713 10.1229ZM21.5263 62.7781L21.7262 159.969L111.215 111.373V14.1829L21.5463 62.7781H21.5263Z" fill="black"/>
<path d="M33.7708 69.2804L51.8245 79.1306L144.838 28.724L126.597 18.8801L33.7708 69.2804Z" fill="white"/>
<path fill-rule="evenodd" clip-rule="evenodd" d="M125.758 17.5309C126.011 17.3938 126.298 17.3217 126.591 17.3217C126.883 17.3217 127.17 17.3938 127.423 17.5309L145.677 27.3748C145.932 27.5115 146.143 27.7088 146.291 27.9468C146.438 28.1848 146.515 28.4551 146.515 28.7302C146.515 29.0054 146.438 29.2757 146.291 29.5137C146.143 29.7517 145.932 29.949 145.677 30.0857L52.6639 80.486C52.4091 80.6254 52.1194 80.6989 51.8245 80.6989C51.5295 80.6989 51.2398 80.6254 50.9851 80.486L32.9314 70.6358C32.6783 70.4988 32.468 70.3016 32.3219 70.0643C32.1757 69.8269 32.0988 69.5576 32.0988 69.2835C32.0988 69.0094 32.1757 68.7402 32.3219 68.5028C32.468 68.2654 32.6783 68.0683 32.9314 67.9312L125.758 17.5309ZM126.597 20.6914L37.0951 69.2866L51.8311 77.3192L141.5 28.7302L126.597 20.6914Z" fill="black"/>
<path d="M33.7708 69.2804V170.087L52.0177 179.931L51.8245 79.1369L33.7708 69.2804Z" fill="white"/>
<path fill-rule="evenodd" clip-rule="evenodd" d="M32.9381 67.925C33.1921 67.7868 33.4805 67.714 33.7742 67.714C34.0678 67.714 34.3562 67.7868 34.6102 67.925L52.6639 77.7752C52.9166 77.912 53.1265 78.1086 53.2726 78.3454C53.4188 78.5822 53.496 78.8508 53.4966 79.1244L53.6832 179.925C53.6849 180.2 53.6092 180.47 53.4638 180.709C53.3183 180.948 53.1082 181.146 52.8547 181.284C52.6013 181.423 52.3134 181.496 52.0202 181.496C51.727 181.496 51.4389 181.424 51.185 181.287L32.9381 171.437C32.6844 171.299 32.4739 171.102 32.3277 170.864C32.1815 170.626 32.1048 170.356 32.1053 170.081V69.2804C32.1048 69.0058 32.1815 68.7359 32.3277 68.4979C32.4739 68.2599 32.6844 68.0623 32.9381 67.925ZM35.4429 72.0038V169.175L50.3389 177.22L50.159 80.0301L35.4429 72.0038Z" fill="black"/>
<path d="M51.8245 79.1306L144.838 28.724V129.531L52.0177 179.931L51.8245 79.1306Z" fill="black"/>
<path fill-rule="evenodd" clip-rule="evenodd" d="M145.67 27.3749C145.925 27.5114 146.137 27.7086 146.285 27.9467C146.432 28.1847 146.51 28.455 146.51 28.7303V129.531C146.509 129.805 146.432 130.073 146.286 130.31C146.14 130.547 145.93 130.743 145.677 130.88L52.8505 181.287C52.5969 181.426 52.3087 181.499 52.015 181.5C51.7214 181.5 51.4329 181.428 51.1786 181.291C50.9243 181.153 50.7133 180.955 50.567 180.716C50.4207 180.477 50.3443 180.207 50.3456 179.931L50.1591 79.1306C50.1585 78.856 50.2352 78.5861 50.3814 78.3481C50.5276 78.1101 50.7381 77.9125 50.9918 77.7752L144.005 27.3749C144.258 27.2378 144.545 27.1656 144.838 27.1656C145.13 27.1656 145.417 27.2378 145.67 27.3749ZM53.5033 80.0301L53.6832 177.221L143.179 128.625V31.4349L53.5033 80.0301Z" fill="black"/>
<path d="M51.8578 95.9953L85.7134 198.383L105.026 192.455L69.8249 89.9427L51.8578 95.9953Z" fill="white"/>
<path fill-rule="evenodd" clip-rule="evenodd" d="M70.5577 88.5436C70.76 88.6353 70.9405 88.7645 71.0882 88.9234C71.2359 89.0823 71.3478 89.2675 71.4171 89.468L106.612 191.974C106.748 192.367 106.713 192.796 106.513 193.165C106.313 193.533 105.965 193.813 105.546 193.941L86.2264 199.869C86.0161 199.934 85.7941 199.959 85.5734 199.942C85.3527 199.926 85.1378 199.868 84.9412 199.773C84.7445 199.677 84.5702 199.546 84.4282 199.387C84.2863 199.227 84.1797 199.043 84.1146 198.845L50.2656 96.4575C50.1375 96.0722 50.1734 95.6553 50.366 95.2943C50.5585 94.9333 50.8926 94.6563 51.2982 94.5212L69.2653 88.4749C69.4752 88.4031 69.6984 88.3716 69.9216 88.3823C70.1448 88.393 70.3634 88.4458 70.5643 88.5374L70.5577 88.5436ZM53.9297 96.9634L86.806 196.402L102.928 191.449L68.759 91.9665L53.923 96.9634H53.9297Z" fill="black"/>
<path d="M144.824 49.4113L178.68 151.799L197.993 145.871L162.791 43.3651L144.824 49.4113Z" fill="white"/>
<path fill-rule="evenodd" clip-rule="evenodd" d="M163.531 41.9596C163.732 42.0521 163.911 42.1816 164.058 42.3404C164.204 42.4992 164.315 42.6841 164.383 42.8841L199.578 145.396C199.713 145.789 199.676 146.215 199.476 146.583C199.277 146.95 198.93 147.229 198.512 147.358L179.193 153.285C178.983 153.349 178.762 153.373 178.542 153.356C178.322 153.339 178.108 153.281 177.912 153.186C177.716 153.09 177.542 152.96 177.401 152.801C177.259 152.642 177.153 152.458 177.088 152.261L143.232 49.8735C143.104 49.4882 143.14 49.0714 143.332 48.7104C143.525 48.3494 143.859 48.0723 144.265 47.9372L162.232 41.8909C162.442 41.8201 162.666 41.7896 162.889 41.8014C163.112 41.8132 163.33 41.867 163.531 41.9596ZM146.896 50.3795L179.772 149.819L195.894 144.872L161.732 45.3825L146.896 50.3795Z" fill="black"/>
<path d="M69.8249 89.949L162.791 43.3651L197.999 145.871L105.033 192.455L69.8316 89.9427L69.8249 89.949Z" fill="white"/>
<path fill-rule="evenodd" clip-rule="evenodd" d="M163.424 41.9159C163.65 42.0017 163.853 42.1329 164.018 42.3002C164.184 42.4674 164.309 42.6668 164.383 42.8841L199.578 145.396C199.698 145.744 199.683 146.121 199.537 146.46C199.391 146.799 199.123 147.079 198.779 147.251L105.812 193.835C105.597 193.944 105.358 194.008 105.114 194.02C104.869 194.033 104.625 193.995 104.398 193.91C104.171 193.824 103.967 193.692 103.8 193.524C103.633 193.355 103.508 193.155 103.434 192.936L68.2394 90.4237C68.1199 90.0756 68.1345 89.6993 68.2806 89.3603C68.4266 89.0213 68.695 88.7411 69.0388 88.5686L162.005 41.9784C162.22 41.8695 162.458 41.8063 162.702 41.7933C162.947 41.7804 163.191 41.818 163.418 41.9034L163.424 41.9159ZM71.8434 90.711L105.999 190.194L195.974 145.109L161.825 45.6261L71.8501 90.711H71.8434Z" fill="black"/>
<path d="M69.8249 89.949L51.8578 95.9953L144.824 49.4113L162.791 43.3651L69.8249 89.9427V89.949Z" fill="white"/>
<path fill-rule="evenodd" clip-rule="evenodd" d="M164.317 42.7279C164.49 43.0887 164.511 43.4976 164.375 43.8721C164.239 44.2466 163.956 44.5587 163.584 44.7454L70.6043 91.3231C70.5336 91.3595 70.4601 91.3908 70.3845 91.4168L52.4174 97.4693C52.0137 97.6375 51.5553 97.6484 51.143 97.4996C50.7307 97.3508 50.3983 97.0546 50.219 96.6761C50.0397 96.2976 50.028 95.8677 50.1867 95.4812C50.3454 95.0946 50.6613 94.783 51.065 94.6148L144.038 48.0309C144.111 47.9946 144.187 47.9633 144.265 47.9372L162.232 41.8909C162.628 41.7577 163.063 41.7699 163.45 41.9252C163.837 42.0804 164.146 42.3672 164.317 42.7279Z" fill="black"/>
<path d="M122.687 81.5978L116.418 84.6022L110.156 87.6067L105.08 158.763L117.404 163.929L126.797 107.001L175.929 135.877L179.872 122.929L122.687 81.5978Z" fill="black"/>
<path fill-rule="evenodd" clip-rule="evenodd" d="M121.934 80.205C122.215 80.0712 122.531 80.0149 122.844 80.0425C123.158 80.0701 123.457 80.1806 123.706 80.3611L180.892 121.686C181.155 121.877 181.351 122.139 181.455 122.436C181.558 122.734 181.564 123.053 181.471 123.354L177.541 136.308C177.471 136.543 177.344 136.76 177.169 136.94C176.994 137.121 176.776 137.26 176.533 137.348C176.29 137.435 176.029 137.468 175.77 137.444C175.511 137.419 175.262 137.338 175.042 137.208L128.056 109.587L119.056 164.166C119.017 164.404 118.92 164.631 118.772 164.828C118.625 165.025 118.43 165.187 118.204 165.302C117.979 165.417 117.728 165.481 117.471 165.49C117.214 165.499 116.959 165.452 116.724 165.353L104.4 160.193C104.088 160.064 103.827 159.847 103.65 159.574C103.474 159.3 103.392 158.982 103.414 158.663L108.49 87.5068C108.508 87.2366 108.6 86.9755 108.758 86.7488C108.915 86.5221 109.133 86.3378 109.39 86.2138L121.934 80.205ZM111.755 88.5998L106.825 157.782L116.085 161.661L125.145 106.757C125.187 106.502 125.296 106.259 125.462 106.053C125.628 105.846 125.847 105.681 126.098 105.574C126.349 105.466 126.625 105.418 126.9 105.435C127.176 105.452 127.443 105.533 127.677 105.671L174.936 133.447L177.954 123.516L122.507 83.4467L111.755 88.5998Z" fill="black"/>
</g>
<defs>
<clipPath id="clip0_41_355">
<rect width="200" height="200" fill="white"/>
</clipPath>
</defs>
</svg>
