<svg width="40" height="40" viewBox="0 0 40 40" fill="none" xmlns="http://www.w3.org/2000/svg">
<g filter="url(#filter0_d_31_111)">
<path fill-rule="evenodd" clip-rule="evenodd" d="M32.2606 13.5139H29.4795C29.6822 14.3005 29.8018 15.1223 29.8018 15.9721C29.8018 21.4014 25.4014 25.8018 19.9729 25.8018C14.5447 25.8018 10.144 21.4014 10.144 15.9721C10.144 15.1223 10.2642 14.3005 10.4668 13.5139H7.68553V27.0304C7.68553 27.708 8.23587 28.258 8.91546 28.258H31.0306C31.192 28.2582 31.3518 28.2265 31.501 28.1649C31.6501 28.1033 31.7857 28.0129 31.8999 27.8989C32.0141 27.7849 32.1047 27.6495 32.1666 27.5005C32.2285 27.3515 32.2604 27.1917 32.2606 27.0304V13.5139ZM32.2606 4.91376C32.2605 4.75234 32.2286 4.5925 32.1668 4.44339C32.1049 4.29429 32.0143 4.15882 31.9001 4.04474C31.7859 3.93066 31.6503 3.84019 31.5011 3.77851C31.3519 3.71683 31.1921 3.68514 31.0306 3.68525H27.3454C27.0195 3.68525 26.707 3.81468 26.4766 4.04506C26.2462 4.27544 26.1167 4.58792 26.1166 4.91376V8.60043C26.1166 8.76178 26.1484 8.92156 26.2101 9.07062C26.2719 9.21969 26.3624 9.35513 26.4765 9.46922C26.5906 9.5833 26.7261 9.67378 26.8752 9.7355C27.0243 9.79723 27.184 9.82898 27.3454 9.82894H31.0306C31.1921 9.82905 31.3519 9.79736 31.5011 9.73568C31.6503 9.674 31.7859 9.58353 31.9001 9.46945C32.0143 9.35537 32.1049 9.2199 32.1668 9.0708C32.2286 8.92169 32.2605 8.76186 32.2606 8.60043V4.91376ZM19.9726 9.82894C16.5795 9.82894 13.8292 12.5789 13.8292 15.9721C13.8292 19.3646 16.5795 22.116 19.9726 22.116C23.3658 22.116 26.1166 19.3646 26.1166 15.9721C26.1166 12.5789 23.3658 9.82894 19.9726 9.82894ZM32.2606 31.9452H7.68525C5.65015 31.9452 4 30.2945 4 28.2577V3.68525C4 1.64987 5.65015 0 7.68525 0H32.2606C34.2959 0 35.9458 1.64987 35.9458 3.68525V28.2577C35.9455 30.2945 34.2959 31.9452 32.2606 31.9452Z" fill="#1E3F1E"/>
</g>
<defs>
<filter id="filter0_d_31_111" x="0" y="0" width="39.9458" height="39.9453" filterUnits="userSpaceOnUse" color-interpolation-filters="sRGB">
<feFlood flood-opacity="0" result="BackgroundImageFix"/>
<feOffset dy="4"/>
<feGaussianBlur stdDeviation="2"/>
<feComposite in2="hardAlpha" operator="out"/>
<feColorMatrix type="matrix" values="0 0 0 0 0 0 0 0 0 0 0 0 0 0 0 0 0 0 0.25 0"/>
<feBlend mode="normal" in2="BackgroundImageFix" result="effect1_dropShadow_31_111"/>
<feBlend mode="normal" in="SourceGraphic" in2="effect1_dropShadow_31_111" result="shape"/>
</filter>
</defs>
</svg>
