<svg width="80" height="80" viewBox="0 0 32 32" fill="none" xmlns="http://www.w3.org/2000/svg">
<rect width="32" height="32" fill="#1ba929"/>
<path d="M9.7245 26.7365V12.3877H4.936V26.7365H9.725H9.7245ZM7.33125 10.4289C9.00075 10.4289 10.0401 9.32709 10.0401 7.95012C10.0089 6.54178 9.00075 5.4707 7.363 5.4707C5.72412 5.4707 4.65375 6.54178 4.65375 7.95C4.65375 9.32697 5.69275 10.4288 7.29987 10.4288H7.33087L7.33125 10.4289ZM12.375 26.7365H17.1631V18.7243C17.1631 18.2961 17.1944 17.8667 17.3209 17.5608C17.6669 16.7036 18.4547 15.8163 19.7779 15.8163C21.5101 15.8163 22.2035 17.132 22.2035 19.0611V26.7365H26.9915V18.5093C26.9915 14.1022 24.6295 12.0513 21.4791 12.0513C18.8962 12.0513 17.7619 13.4891 17.1316 14.4684H17.1635V12.3882H12.3752C12.4377 13.7343 12.3749 26.737 12.3749 26.737L12.375 26.7365Z" fill="white"/>
</svg>
