<svg width="400" height="200" viewBox="0 0 400 200" fill="none" xmlns="http://www.w3.org/2000/svg">
<path d="M94.3828 52.1628H169.827V57.133H101.298V94.5368H165.741V99.5063H101.298V140.572H170.613V145.542H94.3828V52.1628ZM176.586 52.1628H184.602L220.123 93.2288L256.43 52.1621L305.813 0L224.68 97.545L266.489 145.542H258.159L220.123 101.861L181.929 145.542H173.756L215.879 97.5444L176.586 52.1628ZM269.475 57.133V52.1621H355.45V57.1323H315.841V145.541H308.926V57.133H269.475ZM0 52.1621H8.64453L127.848 200L78.5875 145.541L7.22969 59.225L6.91563 145.542H0L0 52.1621ZM354.753 139.071C353.34 139.071 352.28 138.165 352.28 136.992C352.28 135.82 353.34 134.912 354.753 134.912C356.183 134.912 357.226 135.819 357.226 136.992C357.226 138.164 356.183 139.071 354.753 139.071ZM361.548 133.6H365.249C365.299 135.261 366.763 136.378 368.916 136.378C371.321 136.378 372.684 135.177 372.684 132.93V118.692H376.452V132.944C376.452 136.992 373.626 139.323 368.949 139.323C364.559 139.323 361.548 137.062 361.548 133.599V133.6ZM381.38 133.419H385.114C385.434 135.331 387.688 136.545 390.934 136.545C393.962 136.545 396.182 135.247 396.182 133.46C396.182 131.925 394.769 131.004 391.556 130.376L388.427 129.748C384.037 128.895 382.036 127.137 382.036 124.178C382.036 120.591 385.568 118.203 390.866 118.203C395.795 118.203 399.395 120.59 399.613 123.982H395.946C395.593 122.126 393.641 120.967 390.816 120.967C387.839 120.967 385.855 122.154 385.855 123.968C385.855 125.405 387.132 126.23 390.295 126.844L392.969 127.388C397.948 128.352 400 130.027 400 133.056C400 136.908 396.401 139.323 390.648 139.323C385.266 139.323 381.648 137.02 381.38 133.418V133.419Z" fill="black"/>
</svg>
