<svg width="200" height="200" viewBox="0 0 200 200" fill="none" xmlns="http://www.w3.org/2000/svg">
<path d="M90.9763 2.13372C96.4411 -0.704825 103.559 -0.717647 109.019 2.13372C136.488 16.2189 163.966 30.282 191.431 44.3757C196.597 47.0162 200.052 52.2331 199.999 57.6345V142.376C200.038 148.001 196.241 153.343 190.791 155.924C163.412 169.931 136.047 183.956 108.673 197.963C103.095 200.857 95.8343 200.634 90.4307 197.503C82.2225 193.185 74.0002 188.889 65.7912 184.575C64.1137 183.667 62.2228 182.945 61.0383 181.469C62.0854 180.188 63.9575 180.029 65.4788 179.47C68.9051 178.481 72.0519 176.894 75.1996 175.354C75.9955 174.86 76.9673 175.049 77.7303 175.491C84.7493 179.143 91.7063 182.902 98.7488 186.519C100.251 187.306 101.772 186.261 103.057 185.611C129.924 171.832 156.824 158.104 183.687 144.32C184.682 143.886 185.232 142.927 185.151 141.938C185.17 113.983 185.156 86.0235 185.161 58.0691C185.275 56.9465 184.559 55.9143 183.44 55.4549C156.156 41.5115 128.886 27.5467 101.607 13.5997C101.134 13.3049 100.574 13.1467 100.001 13.1459C99.4272 13.1451 98.8668 13.3019 98.3933 13.5955C71.1139 27.5467 43.8487 41.5243 16.5694 55.467C15.4548 55.9271 14.7067 56.9422 14.8394 58.0691C14.8441 86.0235 14.8394 113.983 14.8394 141.942C14.792 142.425 14.9089 142.909 15.1741 143.329C15.4394 143.75 15.8403 144.087 16.3229 144.295C23.6025 148.041 30.8916 151.76 38.1759 155.493C42.2796 157.498 47.3182 158.689 51.8395 157.153C55.8294 155.855 58.6262 152.16 58.55 148.315C58.5877 120.524 58.5312 92.7285 58.5783 64.9414C58.4786 63.7077 59.7683 62.6884 61.0901 62.8045C64.5879 62.7831 68.0903 62.7617 71.588 62.813C73.048 62.7831 74.0528 64.1116 73.8722 65.3545C73.8581 93.3218 73.9099 121.29 73.8487 149.257C73.8581 156.711 70.4836 164.821 62.8861 168.468C53.5264 172.868 41.9578 171.935 32.7111 167.716C24.7062 164.09 17.067 159.811 9.2042 155.927C3.74017 153.361 -0.0377869 147.998 0.000675606 142.377V57.6345C-0.0566257 52.1213 3.53609 46.8096 8.86275 44.2076C36.2371 30.1886 63.6067 16.159 90.9763 2.13372Z" fill="#8CC84B"/>
<path d="M114.857 60.8349C126.796 60.1376 139.578 60.4218 150.321 65.7591C158.639 69.8492 163.251 78.4332 163.398 86.8192C163.165 87.9503 161.862 88.5743 160.673 88.4967C157.209 88.4924 153.744 88.5394 150.28 88.4753C148.81 88.5266 147.956 87.2971 147.772 86.1183C146.777 82.1058 144.365 78.1319 140.203 76.1966C133.815 73.2939 126.407 73.4399 119.441 73.5005C114.355 73.7455 108.886 74.1451 104.578 76.859C101.27 78.9147 100.265 83.0646 101.446 86.4068C102.559 88.8065 105.611 89.5808 108.109 90.2945C122.497 93.7093 137.744 93.3696 151.858 97.8635C157.701 99.6956 163.417 103.257 165.417 108.809C168.033 116.25 166.886 125.143 161.052 131.117C156.322 136.032 149.431 138.708 142.559 140.161C133.417 142.011 123.929 142.058 114.645 141.237C105.914 140.333 96.8295 138.252 90.0899 132.854C84.3268 128.313 81.512 121.238 81.7914 114.409C81.8581 113.256 83.1235 112.452 84.3409 112.546C87.8292 112.521 91.3175 112.512 94.8059 112.551C96.1991 112.46 97.2321 113.553 97.3036 114.744C97.9472 118.567 99.5305 122.58 103.204 124.846C110.294 128.997 119.19 128.713 127.307 128.829C134.033 128.558 141.583 128.476 147.071 124.443C149.967 122.142 150.825 118.292 150.042 114.981C149.194 112.185 145.971 110.882 143.203 110.03C129 105.953 113.583 107.433 99.5163 102.822C93.8058 100.991 88.2837 97.528 86.0898 92.2042C83.0285 84.6694 84.4312 75.3496 90.8764 69.5778C97.1607 63.8366 106.232 61.6263 114.857 60.8349Z" fill="#8CC84B"/>
</svg>
