<svg width="180" height="180" viewBox="0 0 180 180" fill="none" xmlns="http://www.w3.org/2000/svg">
<path d="M180 90.0206C180 76.6308 165.067 63.9414 142.173 56.0723C147.456 29.8695 145.108 9.02266 134.762 2.34836C132.377 0.782787 129.588 0.0411987 126.543 0.0411987V9.22866C128.231 9.22866 129.588 9.59945 130.726 10.2998C135.715 13.5134 137.88 25.7496 136.192 41.4878C135.789 45.3605 135.128 49.4392 134.321 53.6004C127.13 51.6228 119.278 50.0984 111.023 49.1096C106.07 41.4878 100.934 34.5663 95.7603 28.51C107.721 16.0265 118.948 9.18746 126.58 9.18746V0C116.49 0 103.282 8.07508 89.9266 22.0829C76.5715 8.15748 63.3632 0.164798 53.2735 0.164798V9.35225C60.8683 9.35225 72.1321 16.1501 84.0929 28.5512C78.9564 34.6075 73.8198 41.4878 68.9401 49.1096C60.6482 50.0984 52.7966 51.6228 45.6054 53.6416C44.7615 49.5216 44.1378 45.5253 43.6975 41.6937C41.9731 25.9556 44.1011 13.7194 49.0542 10.4646C50.1549 9.72305 51.5858 9.39345 53.2735 9.39345V0.205997C50.1916 0.205997 47.4032 0.947585 44.9817 2.51316C34.6718 9.18746 32.3604 29.9931 37.6804 56.1135C14.8594 64.0238 0 76.672 0 90.0206C0 103.41 14.9327 116.1 37.8271 123.969C32.5438 150.172 34.892 171.019 45.2385 177.693C47.6233 179.258 50.4117 180 53.4937 180C63.5834 180 76.7917 171.925 90.1468 157.917C103.502 171.843 116.71 179.835 126.8 179.835C129.882 179.835 132.67 179.094 135.092 177.528C145.402 170.854 147.713 150.048 142.393 123.928C165.141 116.059 180 103.369 180 90.0206ZM132.23 62.5406C130.872 67.8553 129.185 73.3348 127.277 78.8144C125.773 75.5184 124.195 72.2225 122.47 68.9265C120.783 65.6306 118.985 62.417 117.187 59.2859C122.397 60.1511 127.424 61.2222 132.23 62.5406ZM115.426 106.418C112.564 111.98 109.629 117.253 106.584 122.156C101.117 122.692 95.5769 122.98 90 122.98C84.4599 122.98 78.9197 122.692 73.4896 122.197C70.4444 117.295 67.4725 112.062 64.6107 106.542C61.8223 101.144 59.2907 95.6649 56.9792 90.1442C59.254 84.6235 61.8223 79.1028 64.574 73.7056C67.4358 68.1437 70.371 62.8702 73.4162 57.9675C78.883 57.4319 84.4232 57.1435 90 57.1435C95.5402 57.1435 101.08 57.4319 106.51 57.9263C109.556 62.829 112.528 68.0613 115.389 73.5821C118.178 78.9792 120.709 84.4587 123.021 89.9794C120.709 95.5001 118.178 101.021 115.426 106.418ZM127.277 101.062C129.258 106.583 130.946 112.103 132.34 117.459C127.534 118.778 122.47 119.89 117.224 120.755C119.022 117.583 120.819 114.328 122.507 110.991C124.195 107.695 125.773 104.358 127.277 101.062ZM90.0734 145.022C86.6612 141.067 83.2491 136.658 79.8736 131.838C83.1757 132.003 86.5512 132.126 89.9633 132.126C93.4122 132.126 96.8243 132.044 100.163 131.838C96.861 136.658 93.4489 141.067 90.0734 145.022ZM62.7762 120.755C57.5662 119.89 52.5397 118.819 47.7334 117.501C49.0909 112.186 50.7786 106.706 52.6865 101.227C54.1908 104.523 55.7684 107.819 57.4929 111.115C59.2173 114.411 60.9784 117.624 62.7762 120.755ZM89.8899 35.0195C93.3021 38.9746 96.7142 43.3829 100.09 48.2032C96.7876 48.0384 93.4122 47.9149 90 47.9149C86.5512 47.9149 83.139 47.9972 79.8003 48.2032C83.1023 43.3829 86.5145 38.9746 89.8899 35.0195ZM62.7395 59.2859C60.9417 62.4582 59.1439 65.713 57.4562 69.0501C55.7684 72.3461 54.1908 75.642 52.6865 78.938C50.7053 73.4173 49.0175 67.8965 47.6233 62.5406C52.4297 61.2634 57.4929 60.1511 62.7395 59.2859ZM29.5353 110.867C16.5471 104.646 8.14513 96.4889 8.14513 90.0206C8.14513 83.5523 16.5471 75.3536 29.5353 69.1737C32.6906 67.6493 36.1394 66.2898 39.6983 65.0126C41.7896 73.0877 44.5414 81.4923 47.9535 90.103C44.5781 98.6725 41.863 107.036 39.8084 115.07C36.1761 113.793 32.7273 112.392 29.5353 110.867ZM49.2744 169.741C44.2846 166.528 42.1199 154.292 43.8076 138.553C44.2112 134.681 44.8716 130.602 45.6788 126.441C52.87 128.418 60.7216 129.943 68.9768 130.932C73.9299 138.553 79.0665 145.475 84.2397 151.531C72.2788 164.015 61.0518 170.854 53.4203 170.854C51.7693 170.813 50.3751 170.442 49.2744 169.741ZM136.302 138.347C138.027 154.086 135.899 166.322 130.946 169.577C129.845 170.318 128.414 170.648 126.726 170.648C119.132 170.648 107.868 163.85 95.9071 151.449C101.044 145.393 106.18 138.512 111.06 130.89C119.352 129.902 127.203 128.377 134.395 126.358C135.238 130.52 135.899 134.516 136.302 138.347ZM150.428 110.867C147.273 112.392 143.824 113.751 140.265 115.029C138.174 106.954 135.422 98.5489 132.01 89.9382C135.385 81.3687 138.1 73.0053 140.155 64.9714C143.787 66.2486 147.236 67.6493 150.465 69.1737C163.453 75.3948 171.855 83.5523 171.855 90.0206C171.818 96.4889 163.416 104.688 150.428 110.867Z" fill="#61DAFB"/>
</svg>
