<svg width="200" height="200" viewBox="0 0 200 200" fill="none" xmlns="http://www.w3.org/2000/svg">
<path d="M138.579 139.678C145.959 138.874 151.559 132.172 151.304 124.128C151.05 116.086 144.687 109.651 137.052 109.651H136.543C128.652 109.92 122.545 116.89 122.799 125.201C123.054 129.222 124.58 132.707 126.871 135.12C118.218 153.083 104.984 166.22 85.132 177.211C71.6429 184.718 57.6453 187.399 43.6476 185.523C32.1945 183.914 23.2867 178.553 17.6867 169.705C9.54296 156.568 8.77968 142.359 15.6516 128.15C20.4875 117.962 28.1219 110.455 32.9578 106.702C31.9398 103.217 30.4125 97.3189 29.6492 93.0298C-7.25469 121.18 -3.43673 159.249 7.76171 177.211C16.1601 190.617 33.2125 198.928 52.0461 198.928C57.1359 198.928 62.2258 198.391 67.3164 197.051C99.8937 190.349 124.581 169.973 138.579 139.678ZM183.373 106.434C164.03 82.5736 135.525 69.4372 102.948 69.4372H98.8758C96.5851 64.6115 91.7492 61.3939 86.4047 61.3939H85.8953C78.0062 61.6622 71.8984 68.6324 72.1523 76.944C72.407 84.9865 78.7695 91.421 86.4047 91.421H86.9133C92.5125 91.1527 97.3484 87.3993 99.3843 82.3054H103.966C123.309 82.3054 141.633 88.2033 158.177 99.7317C170.902 108.579 180.064 120.107 185.154 134.048C189.48 145.308 189.226 156.3 184.644 165.684C177.519 179.893 165.557 187.668 149.777 187.668C139.597 187.668 129.926 184.45 124.835 182.037C122.036 184.718 116.945 189.007 113.382 191.689C124.327 197.051 135.525 200 146.214 200C170.647 200 188.717 185.79 195.589 171.582C202.969 156.032 202.46 129.222 183.373 106.434ZM54.082 144.235C54.3367 152.278 60.6992 158.712 68.3344 158.712H68.8437C76.7336 158.445 82.8414 151.473 82.5867 143.163C82.3328 135.119 75.9695 128.686 68.3344 128.686H67.8258C67.3164 128.686 66.5523 128.686 66.0445 128.953C55.6094 110.723 51.2828 90.8844 52.8101 69.4364C53.8273 53.3506 58.9179 39.4093 67.8258 27.8809C75.2062 17.9613 89.4586 13.1356 99.1304 12.8682C126.108 12.3316 137.56 47.7201 138.324 61.9296C141.633 62.7336 147.232 64.6107 151.05 65.9513C147.995 22.5203 122.545 0 98.1125 0C75.2062 0 54.082 17.4264 45.6828 43.1635C33.9758 77.4797 41.6109 110.455 55.8633 136.461C54.5914 138.337 53.8273 141.286 54.082 144.235Z" fill="#764ABC"/>
</svg>
