<svg width="200" height="200" viewBox="0 0 200 200" fill="none" xmlns="http://www.w3.org/2000/svg">
<g clip-path="url(#clip0_41_413)">
<path d="M44.4531 0H155.234C160.625 0 165.859 0.859375 170.938 2.65625C178.281 5.3125 184.922 10 189.922 16.0938C195 22.1875 198.359 29.6875 199.531 37.5C200 40.3906 200.078 43.2812 200.078 46.1719V154.219C200.078 157.656 199.922 161.172 199.219 164.531C197.656 172.266 193.984 179.531 188.672 185.391C183.437 191.25 176.562 195.625 169.141 197.969C164.609 199.375 159.922 200 155.156 200C153.047 200 44.1406 200 42.5 199.922C34.5313 199.531 26.6406 196.953 20 192.5C13.5156 188.125 8.20313 182.031 4.76563 175C1.79688 168.984 0.31251 162.266 0.31251 155.547V44.4531C0.15626 37.8125 1.56251 31.25 4.45313 25.3125C7.81251 18.2813 13.0469 12.1094 19.5313 7.73437C26.1719 3.20312 33.9844 0.546875 41.9531 0.15625C42.7344 0 43.5938 0 44.4531 0Z" fill="url(#paint0_linear_41_413)"/>
<path d="M168.75 163.594C168.047 162.5 167.266 161.406 166.406 160.391C164.453 158.047 162.188 156.016 159.688 154.297C156.562 152.188 152.891 150.859 149.141 150.703C146.484 150.547 143.828 151.016 141.328 151.953C138.828 152.812 136.406 154.062 134.063 155.312C131.328 156.719 128.594 158.125 125.703 159.297C122.266 160.703 118.672 161.797 115 162.578C110.391 163.438 105.703 163.75 101.094 163.672C92.7344 163.516 84.375 162.266 76.4063 159.922C69.375 157.812 62.6563 154.922 56.3281 151.25C50.7813 148.047 45.625 144.375 40.7813 140.234C36.7969 136.797 33.125 133.125 29.6875 129.219C27.3438 126.484 25.0781 123.594 22.9688 120.625C22.1094 119.453 21.3281 118.203 20.625 116.953L0 94.6875V44.2969C0 19.8438 19.7656 0 44.2188 0H83.6719L112.891 29.6875C178.828 74.5312 157.5 123.984 157.5 123.984C157.5 123.984 176.25 145.078 168.75 163.594Z" fill="url(#paint1_linear_41_413)"/>
<path d="M113.422 30C179.359 74.8438 158.031 124.297 158.031 124.297C158.031 124.297 176.781 145.469 169.203 163.984C169.203 163.984 161.469 151.016 148.5 151.016C136 151.016 128.656 163.984 103.5 163.984C47.4844 163.984 21 117.188 21 117.188C71.4688 150.391 105.922 126.875 105.922 126.875C83.1875 113.672 34.8281 50.5469 34.8281 50.5469C76.9375 86.4063 95.1406 95.8594 95.1406 95.8594C84.2813 86.875 53.8125 42.9687 53.8125 42.9687C78.1875 67.6562 126.625 102.109 126.625 102.109C140.375 63.9844 113.422 30 113.422 30Z" fill="white"/>
</g>
<defs>
<linearGradient id="paint0_linear_41_413" x1="118.977" y1="-7.13672" x2="81.1906" y2="207.161" gradientUnits="userSpaceOnUse">
<stop stop-color="#FAAE42"/>
<stop offset="1" stop-color="#EF3E31"/>
</linearGradient>
<linearGradient id="paint1_linear_41_413" x1="102.041" y1="3.23125" x2="74.3852" y2="160.073" gradientUnits="userSpaceOnUse">
<stop stop-color="#E39F3A"/>
<stop offset="1" stop-color="#D33929"/>
</linearGradient>
<clipPath id="clip0_41_413">
<rect width="200" height="200" fill="white"/>
</clipPath>
</defs>
</svg>
