<svg width="280" height="180" viewBox="0 0 280 180" fill="none" xmlns="http://www.w3.org/2000/svg">
<path d="M140 0C102.666 0 79.3328 20.0004 69.9983 59.9975C84 39.9971 100.334 32.4997 118.999 37.498C129.65 40.3498 137.262 48.6314 145.69 57.7948C159.415 72.722 175.3 89.9981 210.002 89.9981C247.333 89.9981 270.669 69.9977 280 29.9969C266.002 49.9973 249.668 57.4984 230.999 52.5002C220.352 49.6483 212.74 41.3667 204.312 32.2033C190.587 17.2762 174.698 0 140 0ZM69.9983 89.9981C32.6673 89.9981 9.331 109.999 0 149.999C13.9983 129.999 30.3319 122.498 49.0009 127.5C59.6484 130.355 67.2602 138.633 75.6879 147.793C89.413 162.72 105.302 180 140 180C177.335 180 200.667 160 210.002 119.999C196 139.999 179.666 147.5 161.001 142.498C150.35 139.65 142.738 131.365 134.31 122.205C120.585 107.278 104.7 89.9981 69.9983 89.9981Z" fill="#06B6D4"/>
</svg>
