<svg width="32" height="32" viewBox="0 0 32 32" fill="none" xmlns="http://www.w3.org/2000/svg">
<path d="M10.0637 32C22.1397 32 28.7437 19.6899 28.7437 9.01504C28.7437 8.66544 28.7379 8.31744 28.7251 7.97088C30.0101 6.82681 31.119 5.41028 32 3.78768C30.8236 4.4312 29.5577 4.86432 28.2297 5.0596C29.5852 4.05952 30.6258 2.47736 31.1168 0.59144C29.828 1.53216 28.4181 2.19531 26.9478 2.55232C25.7498 0.98208 24.0442 0 22.1555 0C18.5299 0 15.5898 3.61776 15.5898 8.0772C15.5898 8.7112 15.6475 9.32768 15.7601 9.9192C10.3035 9.58136 5.46504 6.3668 2.22686 1.47888C1.64364 2.71171 1.33687 4.11284 1.33789 5.5392C1.33789 8.34192 2.49691 10.8161 4.25951 12.2636C3.21691 12.2244 2.1972 11.8779 1.28611 11.2532C1.28514 11.2871 1.28514 11.3202 1.28514 11.3564C1.28514 15.2686 3.54816 18.5351 6.55226 19.2753C5.98805 19.4643 5.40585 19.5599 4.82107 19.5595C4.39876 19.5595 3.98719 19.5084 3.58719 19.4139C4.42302 22.6237 6.8467 24.9594 9.72026 25.0247C7.47317 27.1918 4.64254 28.4826 1.56605 28.4826C1.0427 28.4832 0.519777 28.4458 0 28.3707C2.90563 30.6623 6.35577 31.9994 10.064 31.9994" fill="#1E3F1E"/>
</svg>
